<?xml version="1.0" encoding="UTF-8"?>
<svg id="Capa_1" xmlns="http://www.w3.org/2000/svg" version="1.1" viewBox="0 0 512 512">
  <!-- Generator: Adobe Illustrator 30.1.0, SVG Export Plug-In . SVG Version: 2.1.1 Build 136)  -->
  <defs>
    <style>
      .st0 {
        fill: none;
      }

      .st1 {
        fill: #1b9838;
      }
    </style>
  </defs>
  <polygon class="st0" points="64.7 417.08 179.24 417.08 64.7 277.51 64.7 417.08"/>
  <polygon class="st1" points="249.28 108.71 174.39 108.71 64.7 233.86 64.7 108.71 -.06 108.71 -.06 417.08 64.7 417.08 64.7 277.51 179.24 417.08 255.89 417.08 121.53 253.2 249.28 108.71"/>
  <path class="st1" d="M503.49,166.46c-5.61-13.57-13.7-25.56-24.06-35.63-1.42-1.38-3.14-2.38-4.63-3.67-9.33-8.1-19.72-14.89-31.51-19.56-27.1-10.7-61.84-10.83-89.44,0-11.88,4.66-22.27,11.45-31.53,19.56-1.49,1.31-3.23,2.32-4.65,3.71-10.24,10.04-18.32,22-24.02,35.55-1.63,3.87-2.51,8.13-3.68,12.24-2.93,10.29-4.93,21.04-4.93,32.6s1.99,22.59,4.93,33.1c1.08,3.88,1.86,7.9,3.33,11.59,5.51,13.77,13.5,25.96,23.74,36.2.66.66,1.48,1.12,2.16,1.76,9.8,9.3,21.11,16.85,33.98,22.1,13.74,5.58,28.98,8.42,45.32,8.42s31.58-2.83,45.32-8.42c12.86-5.24,24.12-12.79,33.84-22.1.68-.65,1.52-1.12,2.19-1.8,10.12-10.22,18.08-22.36,23.68-36.1,5.6-13.73,8.43-28.78,8.43-44.75s-2.85-31.25-8.46-44.8ZM444.07,240.49c-4.44,8.37-10.41,14.78-18.24,19.58-15.67,9.54-39.08,9.54-54.69,0-7.86-4.81-13.88-11.24-18.41-19.64-4.51-8.37-6.79-18.19-6.79-29.18s2.28-20.81,6.79-29.19c4.52-8.4,10.54-14.81,18.42-19.62,7.79-4.79,16.73-7.1,27.33-7.1s19.93,2.39,27.62,7.1c7.82,4.79,13.73,11.17,18.06,19.49,4.38,8.43,6.59,18.3,6.59,29.32s-2.26,20.84-6.68,29.24Z"/>
</svg>