<?xml version="1.0" encoding="UTF-8"?>
<svg id="Capa_1" xmlns="http://www.w3.org/2000/svg" version="1.1" viewBox="0 0 512 512">
  <!-- Generator: Adobe Illustrator 30.1.0, SVG Export Plug-In . SVG Version: 2.1.1 Build 136)  -->
  <defs>
    <style>
      .st0 {
        fill: #1e9a38;
      }
    </style>
  </defs>
  <path class="st0" d="M491.88,159.53c3.76,0,4.84,2.15,2.69,4.84-16.12,18.81-85.99,92.44-106.41,113.93-.54.54,0,1.08,0,2.15,32.79,37.63,85.99,99.43,121.47,139.2,1.61,2.15.53,4.84-2.69,4.84h-73.63c-3.76,0-4.84-1.07-6.99-3.76-19.89-22.57-72.56-87.07-98.89-118.77v117.69c0,3.77-1.08,4.84-4.3,4.84h-56.43c-3.76,0-4.84-1.07-4.84-4.84V46.13c0-2.69,1.08-4.3,4.84-4.3h56.43c2.69,0,4.3,1.08,4.3,4.3v227.34c28.49-31.71,84.92-96.75,97.28-110.72,2.15-2.68,3.76-3.22,6.45-3.22h60.73Z"/>
  <path class="st0" d="M84.13,154.41c2.8,0,4.48.56,6.72,3.35,12.87,14.55,71.64,82.27,101.3,115.3l10.49,12.45c0,3.92-10.49,17.21-10.49,17.21-27.42,33.02-82.27,100.18-102.98,123.69-2.24,2.8-3.35,3.92-7.28,3.92H5.22c-3.35,0-4.48-2.8-2.8-5.04,36.94-41.41,92.35-105.77,126.49-144.95,0-1.12.56-1.68,0-2.24-21.27-22.38-94.03-99.06-110.82-118.65-2.24-2.8-1.12-5.04,2.8-5.04h63.24Z"/>
</svg>