<?xml version="1.0" encoding="UTF-8"?>
<svg id="Capa_1" xmlns="http://www.w3.org/2000/svg" version="1.1" viewBox="0 0 299 53">
  <!-- Generator: Adobe Illustrator 30.1.0, SVG Export Plug-In . SVG Version: 2.1.1 Build 136)  -->
  <defs>
    <style>
      .st0 {
        fill: #1e9a38;
      }
    </style>
  </defs>
  <path class="st0" d="M66.88,16.06c.51,0,.66.29.37.66-2.2,2.57-11.73,12.61-14.52,15.54-.07.07,0,.15,0,.29,4.47,5.13,11.73,13.56,16.57,18.99.22.29.07.66-.37.66h-10.04c-.51,0-.66-.15-.95-.51-2.71-3.08-9.9-11.88-13.49-16.2v16.06c0,.51-.15.66-.59.66h-7.7c-.51,0-.66-.15-.66-.66V.59c0-.37.15-.59.66-.59h7.7c.37,0,.59.15.59.59v31.01c3.89-4.33,11.58-13.2,13.27-15.1.29-.37.51-.44.88-.44h8.29Z"/>
  <path class="st0" d="M108.81,33.95c0,11.36-7.26,18.99-17.6,18.99-12.24,0-17.67-9.46-17.67-18.77,0-10.41,6.82-18.84,17.82-18.84s17.45,8.58,17.45,18.62ZM82.49,34.02c0,6.74,3.3,11.44,8.87,11.44,4.55,0,8.43-3.74,8.43-11.29,0-6.09-2.64-11.44-8.87-11.44-4.91,0-8.43,4.33-8.43,11.29Z"/>
  <path class="st0" d="M118.35,24.49c0-2.49-.15-6.45-.29-7.92,0-.37.07-.51.51-.51h6.67c.51,0,.73.15.88.51.22.66.37,1.61.51,2.79,3.15-2.64,6.67-4.03,10.63-4.03,5.5,0,12.24,2.79,12.24,14.52v21.7c0,.51-.22.66-.59.66h-7.62c-.44,0-.66-.22-.66-.66v-20.9c0-4.84-2.05-7.62-6.31-7.62-2.93,0-5.35,1.1-7.11,3.01v25.59c0,.37-.22.59-.59.59h-7.7c-.44,0-.59-.22-.59-.59v-27.13Z"/>
  <path class="st0" d="M179.49,51.03c0,.44-.07.73-.44.88-1.98.73-3.81,1.03-6.23,1.03-6.01,0-9.61-2.93-9.61-10.19v-19.28h-4.62c-.37-.07-.51-.22-.51-.66v-6.16c0-.44.15-.59.59-.59h4.62c.07-2.57.37-7.19.73-9.02.07-.37.22-.59.59-.66l7.41-1.03c.37-.07.51,0,.51.37-.22,2.42-.37,6.75-.37,10.34h7.11c.37,0,.51.15.51.51v6.38c0,.37-.15.51-.51.51h-7.19v17.38c0,3.23,1.03,4.77,4.18,4.77.95,0,1.76-.07,2.79-.29.22-.07.44,0,.44.44v5.28Z"/>
  <path class="st0" d="M216.8,44.72c0,1.61,0,3.08.15,4.62,0,.15,0,.22-.15.29-6.01,2.57-10.26,3.3-15.25,3.3-7.99,0-14.37-3.74-14.37-12.02,0-7.77,6.97-11.66,16.5-11.66,2.2,0,3.88.07,4.55.15v-.88c0-1.69-.95-5.5-7.41-5.5-3.67,0-6.89.73-9.6,2.05-.22.07-.59,0-.59-.44v-6.38c0-.37.07-.51.44-.73,3.15-1.47,7.19-2.2,11.14-2.2,10.19,0,14.59,6.38,14.59,14.52v14.88ZM208.23,36.07c-1.1-.15-2.35-.22-4.03-.22-5.79,0-8.36,1.91-8.36,5.06,0,2.71,1.91,5.06,7.19,5.06,1.91,0,3.59-.22,5.21-.88v-9.02Z"/>
  <path class="st0" d="M227.67,24.49c0-2.49-.15-6.45-.29-7.92,0-.37.07-.51.51-.51h6.67c.51,0,.73.15.88.51.22.66.37,1.61.51,2.79,3.15-2.64,6.67-4.03,10.63-4.03,5.5,0,12.24,2.79,12.24,14.52v21.7c0,.51-.22.66-.59.66h-7.63c-.44,0-.66-.22-.66-.66v-20.9c0-4.84-2.05-7.62-6.31-7.62-2.93,0-5.35,1.1-7.11,3.01v25.59c0,.37-.22.59-.59.59h-7.7c-.44,0-.59-.22-.59-.59v-27.13Z"/>
  <path class="st0" d="M298.85,44.72c0,1.61,0,3.08.15,4.62,0,.15,0,.22-.15.29-6.01,2.57-10.26,3.3-15.25,3.3-7.99,0-14.37-3.74-14.37-12.02,0-7.77,6.97-11.66,16.5-11.66,2.2,0,3.88.07,4.55.15v-.88c0-1.69-.95-5.5-7.41-5.5-3.67,0-6.89.73-9.6,2.05-.22.07-.59,0-.59-.44v-6.38c0-.37.07-.51.44-.73,3.15-1.47,7.19-2.2,11.14-2.2,10.19,0,14.59,6.38,14.59,14.52v14.88ZM290.28,36.07c-1.1-.15-2.35-.22-4.03-.22-5.79,0-8.36,1.91-8.36,5.06,0,2.71,1.91,5.06,7.19,5.06,1.91,0,3.59-.22,5.21-.88v-9.02Z"/>
  <path class="st0" d="M11.25,15.36c.38,0,.61.08.92.46,1.76,1.99,9.77,11.22,13.82,15.73l1.43,1.7c0,.54-1.43,2.35-1.43,2.35-3.74,4.5-11.22,13.67-14.05,16.87-.3.38-.46.53-.99.53H.49c-.46,0-.61-.38-.38-.69,5.04-5.65,12.6-14.43,17.26-19.77,0-.15.08-.23,0-.31-2.9-3.05-12.83-13.51-15.12-16.19-.31-.38-.15-.69.38-.69h8.63Z"/>
</svg>