<?xml version="1.0" encoding="UTF-8"?>
<svg id="Capa_1" xmlns="http://www.w3.org/2000/svg" version="1.1" viewBox="0 0 510 88">
  <!-- Generator: Adobe Illustrator 30.1.0, SVG Export Plug-In . SVG Version: 2.1.1 Build 136)  -->
  <defs>
    <style>
      .st0 {
        fill: #43af69;
      }
    </style>
  </defs>
  <rect class="st0" x="0" width="510.28" height="88"/>
  <polygon points="108.39 52.92 117.24 52.92 117.24 61.67 126.03 61.68 126.03 70.57 108.39 70.57 108.39 61.68 99.33 61.68 99.33 52.93 90.65 52.93 90.65 70.57 72.8 70.57 72.8 17.43 90.65 17.43 90.66 43.89 99.33 43.89 99.33 35.22 108.39 35.22 108.39 26.33 126.03 26.33 126.03 35.22 117.25 35.22 117.25 43.89 108.39 43.88 108.39 52.92"/>
  <polygon points="240.75 70.57 240.75 35.22 222.93 35.22 222.93 70.57 205.13 70.57 205.13 26.33 249.74 26.33 249.74 35.22 258.56 35.22 258.56 70.57 240.75 70.57"/>
  <polygon points="412.92 70.57 412.92 35.22 395.1 35.22 395.1 70.57 377.29 70.54 377.3 26.36 421.98 26.33 421.98 35.22 430.72 35.22 430.72 70.57 412.92 70.57"/>
  <path d="M181.39,70.58h-35.62v-8.9h-8.83v-26.46h8.83v-8.9h35.62v8.9h8.97v26.46h-8.97v8.9ZM172.55,35.21h-17.82v26.47s17.82,0,17.82,0v-26.47Z"/>
  <path d="M312.04,61.69v-8.75h8.81v-9.04h26.78v-8.67h-26.78v-8.9h35.83v8.9h8.74v35.35h-44.58v-8.89h-8.81ZM347.62,52.93h-17.9v8.75h17.9v-8.75Z"/>
  <path d="M440.46,61.69v-8.76h8.8v-9.04h26.71v-8.67s-26.71,0-26.71,0v-8.9h35.85v8.9h8.77v35.36h-44.61v-8.9h-8.8ZM475.96,52.93h-17.74v8.75h17.74v-8.75Z"/>
  <polygon points="303.03 70.57 285.27 70.57 285.27 61.68 276.38 61.68 276.38 35.22 267.51 35.22 267.51 26.33 276.38 26.33 276.38 17.43 294.18 17.43 294.18 26.33 303.03 26.33 303.03 35.22 294.18 35.22 294.19 61.66 303.03 61.68 303.03 70.57"/>
  <polygon points="18.44 61.68 27.21 61.68 27.21 52.93 36.17 52.93 36.17 43.89 27.21 43.89 27.21 35.22 18.44 35.22 18.44 26.33 36.17 26.33 36.17 35.22 45.3 35.22 45.3 43.89 53.77 43.89 53.77 52.94 45.3 52.93 45.3 61.68 36.17 61.68 36.17 70.57 18.44 70.57 18.44 61.68"/>
</svg>