<?xml version="1.0" encoding="UTF-8"?>
<svg id="Capa_1" xmlns="http://www.w3.org/2000/svg" version="1.1" viewBox="0 0 300 46.07">
  <!-- Generator: Adobe Illustrator 30.1.0, SVG Export Plug-In . SVG Version: 2.1.1 Build 136)  -->
  <defs>
    <style>
      .st0 {
        fill: none;
      }

      .st1 {
        fill: #1b9838;
      }
    </style>
  </defs>
  <polyline class="st0" points="209.9 42.7 209.9 1.24 218.08 1.24 218.08 26.95 245.38 1.23"/>
  <line class="st0" x1="179.61" y1="1.23" x2="199.48" y2="42.7"/>
  <polyline class="st0" points="190.95 42.7 186.68 33.29 183.64 26.59 183.59 26.59 182.6 24.3 178.45 14.68 174.8 23.04 173.26 26.59 173.22 26.59 170.22 33.29 166 42.7"/>
  <line class="st0" x1="157.41" y1="42.7" x2="177.28" y2="1.23"/>
  <polyline class="st0" points="137.39 42.7 137.39 8.88 126.25 8.88 126.25 1.24 157.06 1.24 157.06 8.88 145.86 8.88 145.86 42.7"/>
  <line class="st0" x1="115.47" y1="1.23" x2="115.47" y2="42.7"/>
  <polygon class="st0" points="8.71 42.7 24.11 42.7 8.71 23.94 8.71 42.7"/>
  <polyline class="st0" points="107.3 42.7 107.3 16.99 80 42.7"/>
  <polyline class="st0" points="291.47 42.7 287.2 33.29 284.16 26.59 284.11 26.59 283.12 24.3 278.97 14.68 275.33 23.04 273.78 26.59 273.74 26.59 270.74 33.29 266.53 42.7"/>
  <polyline class="st0" points="239.4 42.7 239.4 16.99 212.1 42.7"/>
  <line class="st0" x1="257.94" y1="42.7" x2="277.81" y2="1.23"/>
  <line class="st0" x1="247.58" y1="1.23" x2="247.58" y2="42.7"/>
  <polygon class="st1" points="33.53 1.24 23.46 1.24 8.71 18.07 8.71 1.24 0 1.24 0 42.7 8.71 42.7 8.71 23.94 24.11 42.7 34.42 42.7 16.35 20.67 33.53 1.24"/>
  <polygon class="st1" points="113.28 1.23 85.97 26.95 85.97 1.24 77.8 1.24 77.8 42.7 77.8 44.78 80 42.7 107.3 16.99 107.3 42.7 115.47 42.7 115.47 1.23 113.28 1.23"/>
  <polygon class="st1" points="157.06 8.88 157.06 1.24 126.25 1.24 126.25 8.88 137.39 8.88 137.39 42.7 145.86 42.7 145.86 8.88 157.06 8.88"/>
  <polygon class="st1" points="245.38 1.23 218.08 26.95 218.08 1.24 209.9 1.24 209.9 42.7 209.9 44.78 212.1 42.7 239.4 16.99 239.4 42.7 247.58 42.7 247.58 1.23 245.38 1.23"/>
  <polygon class="st1" points="177.28 1.23 157.41 42.7 166 42.7 170.22 33.29 173.22 26.59 173.26 26.59 174.8 23.04 178.45 14.68 182.6 24.3 183.59 26.59 183.64 26.59 186.68 33.29 190.95 42.7 199.48 42.7 179.61 1.23 177.28 1.23"/>
  <polygon class="st1" points="277.81 1.23 257.94 42.7 266.53 42.7 270.74 33.29 273.74 26.59 273.78 26.59 275.33 23.04 278.97 14.68 283.12 24.3 284.11 26.59 284.16 26.59 287.2 33.29 291.47 42.7 300 42.7 280.13 1.23 277.81 1.23"/>
  <path class="st1" d="M67.72,9c-.75-1.82-1.84-3.44-3.24-4.79-.19-.19-.42-.32-.62-.49-1.25-1.09-2.65-2-4.24-2.63-3.64-1.44-8.32-1.46-12.03,0-1.6.63-3,1.54-4.24,2.63-.2.18-.43.31-.63.5-1.38,1.35-2.46,2.96-3.23,4.78-.22.52-.34,1.09-.5,1.65-.39,1.38-.66,2.83-.66,4.38s.27,3.04.66,4.45c.15.52.25,1.06.45,1.56.74,1.85,1.82,3.49,3.19,4.87.09.09.2.15.29.24,1.32,1.25,2.84,2.27,4.57,2.97,1.85.75,3.9,1.13,6.09,1.13s4.25-.38,6.09-1.13c1.73-.7,3.24-1.72,4.55-2.97.09-.09.2-.15.29-.24,1.36-1.37,2.43-3.01,3.18-4.85.75-1.85,1.13-3.87,1.13-6.02s-.38-4.2-1.14-6.02ZM59.72,18.96c-.6,1.13-1.4,1.99-2.45,2.63-2.11,1.28-5.26,1.28-7.35,0-1.06-.65-1.87-1.51-2.48-2.64-.61-1.13-.91-2.45-.91-3.92s.31-2.8.91-3.93c.61-1.13,1.42-1.99,2.48-2.64,1.05-.64,2.25-.96,3.68-.96s2.68.32,3.71.96c1.05.64,1.85,1.5,2.43,2.62.59,1.13.89,2.46.89,3.94s-.3,2.8-.9,3.93Z"/>
</svg>