<svg xmlns="http://www.w3.org/2000/svg" viewBox="0 0 24 24" width="24" height="24" fill="currentColor"><path fill-rule="evenodd" d="M9.878 5a2.251 2.251 0 0 1 4.244 0h.128a6.25 6.25 0 0 1 6.25 6.25v2.303l2.061 4.122A.75.75 0 0 1 21.89 18.5H15.5a3.5 3.5 0 1 1-7 0H2.11a.75.75 0 0 1-.67-1.085L3.5 13.293V11.25A6.25 6.25 0 0 1 9.75 5h.128ZM10 18.5a2 2 0 1 0 4 0h-4Zm2-12a4.75 4.75 0 0 0-4.75 4.75v2.303a.75.75 0 0 1-.073.322L5.39 17h13.22l-1.787-3.125a.75.75 0 0 1-.073-.322V11.25A4.75 4.75 0 0 0 12 6.5Z" clip-rule="evenodd"/></svg>
